<?xml version="1.0" standalone="no"?>
<!DOCTYPE svg PUBLIC "-//W3C//DTD SVG 20010904//EN"
 "http://www.w3.org/TR/2001/REC-SVG-20010904/DTD/svg10.dtd">
<svg version="1.0" xmlns="http://www.w3.org/2000/svg"
 width="1280.000000pt" height="345.000000pt" viewBox="0 0 1280.000000 345.000000"
 preserveAspectRatio="xMidYMid meet">
<metadata>
Created by potrace 1.16, written by Peter Selinger 2001-2019
</metadata>
<g transform="translate(0.000000,345.000000) scale(0.100000,-0.100000)"
fill="#000000" stroke="none">
<path d="M2 3241 c-1 -206 0 -209 21 -215 33 -9 37 -7 37 9 0 8 5 15 10 15 6
0 10 -18 10 -40 0 -28 7 -47 22 -62 l23 -23 -22 -3 c-34 -5 -35 -29 -3 -42 30
-13 66 -7 56 8 -3 5 5 7 18 5 13 -3 27 0 30 6 5 7 -2 11 -18 11 -16 0 -26 6
-26 14 0 8 -11 23 -25 34 l-25 20 21 36 21 35 24 -27 c22 -25 25 -26 35 -9 12
21 29 22 29 3 0 -20 72 -64 78 -48 2 7 12 12 23 12 12 0 16 -5 13 -15 -7 -17
21 -21 31 -5 3 6 15 10 25 10 28 0 36 20 11 27 -16 4 -20 11 -16 24 7 22 -3
24 -29 4 -14 -11 -22 -11 -37 -2 -29 18 -23 27 21 27 22 0 40 4 40 9 0 6 16 3
36 -5 29 -12 39 -13 45 -3 9 16 0 39 -16 39 -13 0 -29 29 -20 38 2 3 12 -1 21
-8 13 -12 17 -11 25 1 15 24 10 28 -26 22 -21 -3 -41 -1 -50 7 -19 16 -19 30
0 30 8 0 15 -4 15 -10 0 -19 27 -10 40 14 9 18 26 28 63 36 54 11 67 5 67 -32
0 -21 -11 -23 -28 -6 -9 9 -12 8 -12 -7 -1 -19 -1 -19 -14 -2 -7 9 -18 17 -25
17 -18 0 -13 -24 10 -43 17 -15 23 -16 36 -5 13 10 17 10 20 1 3 -7 11 -13 19
-13 8 0 11 6 7 16 -6 16 23 48 45 50 28 2 32 5 32 24 0 13 5 18 16 13 9 -3 13
-12 8 -22 -14 -34 -16 -51 -6 -51 6 0 13 10 15 23 l4 22 8 -22 c8 -26 17 -28
46 -13 23 13 25 40 4 40 -9 0 -25 16 -36 35 -12 19 -25 33 -29 30 -5 -3 -11
-1 -14 4 -3 5 10 12 29 15 22 4 35 13 35 22 0 8 5 24 10 35 10 17 13 18 39 5
25 -13 29 -13 44 5 9 10 12 19 7 19 -6 0 -10 8 -10 18 0 34 -32 52 -88 50 -29
-1 -52 -6 -52 -10 0 -4 7 -8 15 -8 8 0 15 -4 15 -9 0 -5 -7 -11 -15 -15 -8 -3
-15 -11 -15 -19 0 -7 -11 -24 -25 -37 -14 -13 -25 -32 -25 -42 0 -23 -27 -24
-32 -1 -3 14 -8 12 -31 -11 -33 -33 -54 -29 -51 10 1 16 3 35 3 42 1 10 11 12
40 7 34 -6 40 -4 46 14 3 12 15 21 26 21 25 0 35 25 19 45 -9 11 -31 15 -74
14 l-61 -1 43 -11 c31 -7 42 -15 42 -28 0 -16 -8 -19 -45 -19 -37 0 -45 -3
-43 -16 2 -10 -3 -19 -10 -21 -10 -4 -11 6 -6 46 l7 51 -131 0 c-72 0 -142 -4
-156 -10 -17 -6 -26 -6 -26 0 0 6 -7 10 -15 10 -8 0 -15 -6 -15 -14 0 -8 -6
-18 -12 -22 -7 -4 -10 -4 -6 1 4 4 3 14 -3 22 -8 9 -37 13 -94 13 l-83 0 0
-209z"/>
<path d="M12380 3442 c0 -4 6 -14 12 -20 10 -10 10 -15 -1 -21 -16 -10 -5 -34
12 -25 7 3 3 -2 -8 -10 -17 -14 -20 -14 -28 -1 -4 8 -17 15 -29 15 -16 0 -19
-4 -14 -24 l6 -25 -47 16 c-27 9 -52 20 -57 24 -14 13 -36 11 -36 -2 0 -14
-30 -38 -47 -39 -7 0 -13 5 -13 10 0 6 8 10 18 11 14 0 14 2 -3 9 -17 7 -17 9
-2 9 19 1 25 41 6 41 -6 0 -9 -6 -6 -14 4 -9 -5 -19 -24 -27 -20 -8 -26 -15
-18 -19 8 -6 6 -11 -9 -19 -14 -7 -23 -8 -27 -1 -4 7 -13 7 -26 0 -15 -9 -19
-7 -19 5 0 8 9 15 20 15 24 0 25 6 4 27 -13 14 -17 14 -25 2 -8 -12 -11 -12
-20 1 -9 13 -10 12 -5 -2 4 -14 0 -18 -20 -18 -17 0 -28 7 -31 20 -8 29 -23
25 -23 -6 0 -21 -4 -24 -20 -19 -11 3 -27 2 -36 -3 -14 -8 -6 -13 38 -26 31
-9 67 -16 80 -17 14 0 3 -6 -27 -15 -77 -22 -152 -2 -123 33 16 20 1 28 -17 9
-9 -9 -23 -16 -31 -16 -22 0 -17 -38 6 -45 28 -9 25 -25 -5 -25 -18 0 -25 5
-25 20 0 11 -5 20 -11 20 -8 0 -8 5 1 15 10 13 9 15 -10 15 -18 0 -21 -4 -17
-21 5 -18 2 -20 -19 -16 -32 6 -31 -7 2 -21 14 -7 22 -17 19 -22 -8 -14 38
-30 83 -30 39 1 87 28 64 37 -27 10 2 23 51 23 62 0 72 -6 72 -43 1 -22 -2
-26 -19 -21 -11 4 -28 16 -38 28 l-17 21 -1 -22 c0 -18 -6 -23 -25 -23 -24 0
-24 -1 -8 -20 10 -11 27 -20 38 -20 11 0 26 -4 34 -9 12 -8 12 -12 2 -25 -12
-14 -10 -16 13 -16 14 0 26 -6 26 -12 1 -8 5 -7 13 4 7 9 25 20 40 23 30 8 33
15 15 33 -6 6 -9 14 -5 18 9 9 44 -28 49 -51 2 -14 12 -20 30 -20 37 -1 58
-22 58 -61 0 -39 15 -52 30 -25 7 13 7 22 0 26 -5 3 -10 17 -10 30 0 22 3 24
29 19 16 -4 32 -1 35 5 12 19 36 12 36 -10 0 -29 44 -22 48 7 3 24 39 39 56
25 6 -5 22 -11 35 -13 46 -6 36 -28 -13 -28 -28 0 -46 -5 -46 -11 0 -9 21 -10
73 -6 l72 6 -35 -19 c-33 -18 -31 -22 15 -24 11 -1 22 -11 26 -26 4 -14 7 -19
8 -11 1 10 11 12 45 8 40 -6 44 -4 48 16 5 27 -15 49 -36 41 -8 -3 -20 -3 -25
1 -15 8 37 55 54 49 7 -3 15 3 19 13 6 15 9 15 16 3 6 -10 3 -21 -8 -34 -19
-21 -23 -21 62 0 23 5 24 3 24 -40 0 -25 -3 -48 -8 -51 -8 -5 10 -55 20 -55
11 0 28 50 19 56 -12 7 -12 91 0 98 4 3 9 48 10 101 1 88 0 95 -18 95 -11 0
-23 5 -26 10 -4 6 5 10 19 10 37 0 33 24 -10 64 -25 23 -42 32 -57 29 -21 -4
-21 -4 3 16 l25 20 -113 0 c-61 0 -112 -4 -112 -8 0 -15 28 -33 34 -22 5 7 14
7 29 0 16 -7 22 -18 21 -37 -1 -15 -3 -35 -3 -44 -1 -24 -17 -23 -24 2 -4 15
-14 20 -36 20 -17 0 -31 5 -31 11 0 18 -27 39 -50 39 -31 0 -19 24 16 31 21 5
14 7 -28 8 -32 0 -58 -3 -58 -7z"/>
<path d="M10109 2591 c-13 -10 -31 -21 -39 -25 -8 -3 2 -4 22 -2 31 4 35 2 25
-9 -6 -7 -16 -10 -21 -7 -5 3 -6 0 -2 -6 3 -5 0 -13 -6 -16 -7 -3 -2 -3 11 0
38 10 16 -12 -40 -41 -53 -26 -105 -36 -60 -11 24 13 24 13 -12 18 -19 2 -34
0 -31 -4 3 -4 -17 -14 -43 -22 -42 -13 -44 -15 -18 -16 l30 -1 -30 -14 c-16
-7 -26 -14 -22 -14 4 -1 -5 -12 -20 -26 l-28 -26 37 18 c20 10 35 22 35 28 -1
5 8 11 21 13 12 2 22 8 22 13 0 5 15 9 34 9 18 0 50 7 71 16 21 9 34 10 30 4
-4 -6 -18 -15 -32 -21 -13 -5 -21 -13 -18 -19 3 -5 -1 -10 -9 -10 -8 0 -17 -4
-21 -9 -3 -6 4 -8 15 -6 11 2 20 0 20 -6 0 -9 -20 -13 -52 -11 -10 1 -18 -3
-18 -8 0 -10 35 -14 100 -12 23 1 40 9 52 24 18 24 24 43 10 34 -5 -3 -9 1 -9
8 0 7 6 13 13 13 7 0 11 -4 8 -9 -9 -15 5 -8 31 14 30 26 32 38 5 38 -16 0
-20 7 -20 34 0 42 9 68 21 60 5 -3 9 2 9 10 0 22 -42 20 -71 -3z"/>
<path d="M7630 2440 c0 -10 9 -21 19 -25 18 -5 31 -24 37 -53 1 -6 -2 -10 -7
-6 -5 3 -9 0 -9 -5 0 -6 -8 -11 -17 -12 -12 -1 -10 -4 7 -9 l25 -8 -25 -2 -25
-1 24 -10 c23 -9 24 -10 5 -24 -10 -8 -23 -14 -29 -15 -5 0 -3 5 5 11 13 9 13
10 0 6 -8 -2 -15 -8 -15 -13 0 -5 -4 -15 -9 -23 -5 -8 -4 -16 5 -22 11 -7 11
-9 -3 -9 -9 0 -20 -4 -23 -10 -4 -6 1 -7 11 -3 15 5 14 3 -2 -23 -11 -15 -13
-25 -6 -20 10 6 12 -13 7 -96 -8 -127 -8 -128 -48 -153 -17 -11 -41 -37 -53
-58 l-21 -39 -6 29 c-3 15 -1 36 5 46 7 13 6 23 -1 30 -8 8 -11 4 -12 -14 0
-13 -3 -18 -6 -11 -9 24 5 44 24 33 15 -7 18 -5 20 17 1 22 -1 23 -8 9 -8 -13
-14 -15 -30 -7 -10 6 -19 7 -18 3 1 -4 -3 -19 -9 -33 -10 -24 -11 -24 -11 -2
-1 12 3 22 7 22 4 0 9 10 9 23 1 12 5 33 8 46 5 21 4 23 -9 12 -14 -12 -16
-10 -17 10 0 22 -1 23 -9 4 -7 -16 -9 -17 -9 -3 -1 9 3 19 7 22 5 3 9 26 11
52 2 43 1 45 -15 30 -27 -28 -29 -8 -2 22 20 21 24 32 17 50 -11 28 -19 29
-11 0 3 -13 1 -19 -5 -15 -6 4 -15 -5 -22 -19 -6 -14 -15 -23 -20 -19 -5 3
-12 -3 -14 -12 -4 -14 -5 -13 -6 5 0 12 4 22 10 22 7 0 9 9 6 21 -3 12 0 22 9
26 8 3 14 10 14 16 0 6 9 20 19 31 17 19 18 22 4 35 -13 12 -14 11 -9 -7 4
-11 2 -23 -4 -27 -5 -3 -10 1 -10 9 0 16 -20 24 -20 9 0 -5 -13 -23 -29 -41
-19 -22 -31 -28 -34 -20 -3 7 -6 -2 -6 -21 -1 -29 -3 -32 -16 -21 -8 7 -15 21
-15 30 0 29 -11 50 -22 44 -6 -4 -7 2 -3 17 14 44 -14 4 -53 -76 -28 -57 -33
-75 -21 -75 6 0 9 -9 6 -20 -3 -11 -1 -18 4 -14 5 3 9 15 10 27 0 21 1 21 9 2
7 -17 9 -17 9 -2 1 21 21 23 21 2 0 -8 5 -15 10 -15 6 0 16 -11 22 -25 6 -14
19 -25 30 -25 15 0 18 -8 17 -47 -1 -30 -4 -37 -6 -20 -2 15 -9 27 -15 27 -6
0 -17 8 -24 18 -13 16 -13 16 -14 -1 0 -14 -3 -15 -19 -5 -11 7 -18 15 -16 18
2 4 -9 6 -26 5 -37 -2 -39 2 -41 62 l-1 48 -19 -40 c-10 -22 -16 -48 -14 -58
3 -11 2 -16 -1 -13 -4 3 -16 0 -27 -7 -32 -20 -56 -28 -56 -17 0 6 6 10 14 10
8 0 17 4 20 9 7 10 -6 9 -41 -3 -23 -7 -32 -26 -12 -26 6 0 3 -7 -5 -16 -9 -8
-16 -22 -16 -30 0 -21 -31 -65 -41 -58 -5 3 -9 1 -9 -5 0 -14 14 -21 26 -13 6
4 20 24 33 45 13 21 26 36 28 33 3 -3 14 5 24 17 10 12 18 18 19 13 0 -5 7 -3
15 4 30 25 14 -7 -20 -40 -19 -19 -34 -39 -33 -44 4 -21 -25 -91 -43 -103 -33
-24 -120 -142 -113 -154 4 -8 3 -9 -4 -5 -7 4 -12 2 -12 -3 0 -6 -6 -11 -13
-11 -12 0 -17 -7 -47 -66 -8 -16 -21 -33 -28 -37 -12 -8 -29 -42 -30 -61 0 -5
-6 -12 -13 -17 -7 -4 -14 -16 -16 -26 -10 -55 -11 -73 -2 -68 5 4 9 13 9 21 0
8 4 22 10 32 5 9 17 34 26 55 9 20 20 37 25 37 5 0 9 -26 8 -57 -1 -44 -3 -52
-9 -33 -6 18 -8 20 -9 7 -1 -11 -6 -15 -13 -11 -6 4 -8 3 -5 -4 4 -5 -10 -30
-30 -54 -20 -23 -34 -35 -30 -25 3 9 4 24 1 32 -6 14 -8 13 -19 -2 -7 -9 -10
-24 -7 -33 3 -8 -5 -4 -16 9 -12 13 -22 19 -22 13 0 -6 4 -13 10 -17 6 -4 5
-15 -2 -30 -6 -13 -15 -22 -19 -19 -5 3 -9 -4 -9 -16 0 -12 -4 -18 -10 -15 -5
3 -10 -1 -10 -9 0 -9 -9 -21 -20 -28 -11 -7 -20 -18 -20 -25 0 -7 -7 -13 -16
-13 -8 0 -13 -4 -9 -9 3 -5 1 -12 -5 -16 -16 -10 -12 -28 5 -21 18 7 20 -15 3
-33 -11 -11 -10 -13 4 -8 10 3 19 0 22 -9 5 -12 1 -14 -17 -8 -12 4 -23 10
-25 15 -2 4 -11 5 -20 2 -15 -6 -15 -5 -3 11 11 13 11 20 3 28 -7 7 -12 9 -12
5 0 -4 -9 -3 -20 3 -11 6 -20 15 -20 21 0 6 7 3 16 -5 19 -20 20 -20 28 0 3 8
2 12 -4 9 -6 -3 -10 5 -10 19 0 22 -5 26 -28 26 -20 0 -32 -7 -40 -22 -6 -13
-11 -17 -11 -10 -1 6 -12 12 -26 12 -13 0 -35 10 -48 23 -49 47 -91 81 -80 67
12 -18 13 -50 1 -50 -4 0 -8 -4 -8 -10 0 -5 8 -10 18 -10 10 0 27 -7 38 -16
10 -8 13 -13 7 -9 -8 4 -13 -1 -13 -12 0 -14 -2 -15 -9 -4 -7 11 -9 11 -14 0
-4 -12 -7 -11 -16 1 -14 19 -14 7 0 -22 11 -26 66 -63 89 -60 11 2 10 0 -2 -8
-27 -17 -23 -42 5 -35 27 7 93 -30 102 -57 4 -10 11 -18 16 -18 5 0 9 -4 9
-10 0 -5 -7 -10 -15 -10 -8 0 -15 -4 -15 -8 0 -5 -15 -9 -33 -10 -42 -2 -87
-18 -87 -32 0 -5 -7 -10 -16 -10 -8 0 -13 -4 -9 -10 3 -5 12 -7 20 -3 8 3 15
1 15 -5 0 -6 14 -14 31 -17 23 -5 28 -9 18 -16 -8 -5 -9 -9 -4 -9 29 -1 -26
-20 -57 -20 -37 0 -78 -24 -78 -45 0 -5 5 -3 10 5 8 12 12 12 18 2 5 -7 22
-14 39 -15 17 -1 29 -5 26 -10 -2 -4 -16 -5 -31 -2 l-27 5 27 -11 c31 -12 40
-8 97 43 43 40 51 54 26 44 -21 -8 -19 0 8 25 12 12 16 18 8 14 -11 -6 -13 -4
-8 9 4 10 7 24 7 31 0 7 14 21 32 29 38 19 49 20 25 2 -23 -18 -13 -42 24 -58
l28 -13 -27 -23 -27 -23 25 6 c17 4 21 3 11 -3 -7 -5 -11 -15 -7 -20 9 -15
-26 -32 -67 -32 -27 0 -39 -6 -53 -28 -27 -42 -36 -48 -74 -49 l-35 -2 40 19
c46 21 39 25 -16 8 -33 -9 -39 -15 -39 -39 0 -15 4 -30 8 -33 12 -7 13 -75 2
-96 -8 -14 -5 -17 13 -16 14 1 22 8 23 21 1 11 5 29 10 39 5 13 4 17 -3 13
-12 -8 -26 20 -17 34 3 5 19 9 35 9 17 0 28 3 26 8 -8 12 19 32 43 32 5 0 24
16 43 35 32 33 62 50 38 22 -6 -8 -7 -17 -3 -21 4 -4 0 -6 -8 -4 -8 1 -14 -2
-13 -9 2 -7 -6 -17 -18 -23 -16 -9 -18 -14 -9 -26 7 -7 16 -12 19 -9 4 2 8 -1
8 -8 0 -7 3 -36 7 -65 4 -30 3 -52 -2 -52 -6 0 -12 -8 -16 -18 -3 -9 -9 -23
-12 -29 -4 -8 2 -13 15 -13 26 0 27 -16 2 -30 -28 -14 -36 -12 -21 5 17 20 -6
21 -26 0 -12 -12 -13 -19 -3 -37 7 -13 17 -26 23 -30 7 -5 4 -8 -7 -8 -10 0
-15 -5 -11 -11 3 -6 18 -8 33 -5 l26 6 -24 -21 c-14 -11 -33 -18 -43 -16 -10
3 -18 1 -18 -5 0 -5 -4 -7 -9 -4 -11 7 -41 -3 -41 -14 0 -4 9 -18 20 -30 15
-17 31 -24 58 -23 l37 0 -42 -13 c-22 -7 -50 -21 -60 -31 -17 -17 -17 -21 -5
-33 12 -11 20 -11 46 -1 17 7 42 15 56 17 23 4 23 3 5 -6 -17 -9 -15 -10 12
-5 30 4 32 3 21 -15 -8 -12 -15 -15 -19 -8 -4 7 -10 5 -15 -5 -5 -8 -18 -17
-29 -19 -13 -2 -19 -10 -17 -22 2 -11 -1 -15 -7 -11 -6 3 -11 18 -11 33 0 21
-2 24 -10 12 -9 -13 -10 -13 -10 0 0 11 -2 12 -8 3 -4 -7 -13 -9 -21 -4 -7 5
-27 5 -45 2 -17 -4 -46 -6 -65 -4 -29 3 -32 1 -21 -12 16 -19 5 -34 -12 -17
-7 7 -21 11 -33 11 -16 -1 -17 -2 -2 -6 9 -2 17 -8 17 -13 0 -5 12 -13 28 -18
24 -9 25 -10 5 -11 -28 -1 -30 -17 -3 -26 11 -3 20 -12 20 -20 0 -17 22 -25
69 -25 35 0 37 2 50 45 7 25 19 45 26 45 16 0 29 -31 17 -39 -5 -3 -11 -16
-14 -28 -6 -23 -4 -23 82 -23 54 0 91 4 96 11 5 8 9 7 14 -1 14 -23 60 34 60
74 0 19 5 38 12 42 7 4 8 3 4 -5 -4 -6 -3 -17 2 -24 5 -7 12 -28 16 -47 3 -19
3 -29 0 -22 -9 19 -24 14 -17 -6 6 -14 4 -15 -9 -4 -12 10 -18 9 -28 -3 -11
-13 16 -15 243 -15 l255 0 7 40 c6 36 25 57 25 28 0 -6 3 -8 6 -5 4 4 3 12 -2
19 -11 14 -3 89 9 88 30 -1 37 2 37 15 0 8 4 15 10 15 5 0 7 -7 4 -15 -4 -9 0
-15 9 -15 9 0 19 -9 22 -20 7 -21 25 -28 25 -9 0 6 9 9 20 6 18 -5 19 -3 5 24
-20 38 -20 56 0 39 8 -7 17 -27 21 -45 4 -23 14 -36 32 -44 27 -11 27 -11 5 5
-13 9 -23 20 -23 25 0 5 11 -1 24 -12 14 -12 22 -28 19 -35 -3 -8 -1 -14 3
-15 5 -1 20 -2 34 -4 38 -3 91 -26 84 -36 -3 -5 1 -6 9 -3 8 3 21 -6 31 -20
l16 -26 459 0 c358 0 460 3 464 13 4 9 6 9 6 0 1 -7 12 -13 26 -13 22 0 25 4
25 38 -1 35 -2 36 -13 15 -9 -16 -16 -20 -27 -13 -22 14 -30 12 -30 -7 0 -34
-18 2 -22 43 -3 41 -3 41 24 34 29 -9 28 -18 13 96 -2 20 -12 43 -22 51 -10 8
-12 12 -5 8 6 -3 12 0 12 7 0 7 8 1 17 -12 20 -29 40 -50 47 -50 2 0 6 12 8
28 2 15 8 26 16 24 11 -2 17 23 13 56 -1 7 9 12 24 12 15 0 25 6 25 15 0 9 6
12 15 9 8 -4 15 -1 15 5 0 6 5 11 11 11 5 0 7 -5 4 -11 -4 -6 2 -5 13 2 12 7
18 17 16 21 -3 4 0 8 5 8 19 0 12 20 -6 21 -14 0 -13 3 5 12 18 8 25 8 32 -2
5 -9 10 -10 14 -2 14 22 -6 32 -48 27 -29 -4 -35 -3 -21 3 31 15 4 13 -51 -4
-27 -8 -66 -15 -87 -17 -21 -1 -41 -6 -43 -10 -3 -4 -31 -8 -63 -8 -45 0 -58
3 -58 15 0 8 4 15 9 15 4 0 7 3 7 8 -3 18 2 32 12 32 5 0 7 -4 4 -10 -9 -14 8
-13 23 2 9 9 12 8 12 -4 0 -19 48 -22 69 -4 8 6 16 10 18 9 9 -7 23 -2 23 8 0
8 -5 7 -15 -1 -13 -11 -14 -10 -8 5 5 14 3 17 -8 13 -10 -4 -15 1 -16 13 -1
10 3 19 8 19 6 0 7 -4 4 -10 -3 -5 -2 -10 4 -10 5 0 9 9 8 19 0 11 -6 17 -14
14 -15 -6 -18 13 -3 22 6 3 10 14 9 23 0 11 -3 12 -6 5 -2 -7 -11 -13 -19 -13
-10 0 -13 8 -10 26 4 21 2 23 -9 14 -11 -9 -12 -7 -8 11 5 18 3 20 -18 15 -13
-3 -18 -3 -11 0 18 8 15 24 -5 24 -11 0 -14 3 -7 8 24 16 25 46 2 64 -20 15
-21 19 -8 28 8 6 26 8 39 5 15 -4 28 0 38 12 13 16 14 16 9 1 -6 -20 10 -34
17 -16 3 8 6 5 6 -6 1 -12 6 -16 16 -12 8 3 15 0 16 -7 1 -12 16 29 18 49 1
17 -31 27 -41 12 -5 -9 -8 -6 -8 9 0 12 6 24 13 26 6 3 2 6 -11 6 -20 1 -21 3
-10 21 15 24 28 26 28 5 0 -8 3 -15 8 -15 14 1 44 51 38 65 -3 8 -1 17 4 20 5
3 11 -3 13 -12 4 -15 6 -15 12 4 4 13 11 20 16 17 5 -3 9 0 9 5 0 6 5 11 11
11 6 0 8 -9 4 -20 -11 -35 20 -23 33 13 15 41 15 50 2 42 -16 -10 -11 10 8 31
9 10 17 28 17 39 0 11 6 28 14 38 13 16 13 19 1 27 -12 7 -11 10 5 16 26 10
76 65 69 76 -3 5 -2 7 3 6 21 -6 123 79 123 103 0 4 14 21 30 37 32 33 37 48
18 55 -34 12 13 21 112 22 97 1 132 6 119 19 -2 2 -31 7 -64 10 -69 7 -131 27
-130 41 0 5 6 9 13 7 6 -2 12 6 12 17 0 15 -5 19 -17 14 -10 -4 -14 -2 -9 5 7
12 -33 44 -46 36 -4 -3 -8 3 -9 13 0 10 -3 13 -6 6 -8 -20 -23 -15 -23 7 0 11
-3 19 -7 19 -23 -4 -43 2 -38 11 3 6 1 10 -5 10 -7 0 -9 8 -5 21 5 13 2 25 -6
31 -11 7 -11 11 -1 15 6 2 12 22 12 43 0 56 44 75 142 61 4 -1 10 -10 13 -21
7 -22 25 -28 21 -7 -1 6 -7 22 -14 33 -6 12 -8 25 -4 29 4 3 0 5 -8 3 -10 -2
-16 6 -18 25 -2 18 1 27 11 27 8 0 22 8 31 19 9 10 35 21 57 25 21 3 48 15 58
25 16 16 17 22 6 37 -7 10 -11 24 -8 30 2 7 0 15 -6 19 -14 8 -41 -18 -41 -40
0 -9 -4 -14 -9 -10 -5 3 -15 -1 -23 -8 -7 -7 -21 -16 -30 -20 -10 -3 -18 -11
-18 -17 0 -5 -4 -10 -10 -10 -5 0 -10 7 -10 15 0 8 -4 15 -10 15 -5 0 -10 -7
-10 -15 0 -8 -4 -15 -10 -15 -14 0 -13 -26 3 -51 10 -17 9 -22 -7 -34 -10 -8
-23 -12 -27 -9 -5 3 -9 -1 -9 -8 0 -10 -15 -13 -52 -13 -49 0 -56 3 -95 42
-41 43 -42 43 -46 128 -3 72 -1 85 12 85 10 0 4 8 -14 20 -16 11 -26 20 -21
20 5 0 3 7 -4 15 -6 8 -12 35 -12 60 -1 40 -5 48 -28 60 -31 16 -45 41 -27 49
7 2 4 5 -5 5 -10 1 -18 5 -18 9 0 13 -66 31 -130 35 -53 4 -110 -7 -110 -22 0
-4 -11 -13 -25 -19 -14 -6 -25 -19 -25 -27 0 -12 -4 -14 -19 -5 -25 13 -31 13
-31 0 0 -5 7 -10 15 -10 22 0 18 -15 -7 -28 -21 -10 -19 -11 16 -11 33 -1 37
-3 26 -16 -7 -8 -16 -12 -21 -9 -5 3 -9 0 -9 -5 0 -6 -7 -11 -15 -11 -22 0
-18 -18 6 -25 15 -5 18 -9 9 -15 -8 -5 -2 -10 17 -14 l28 -8 -25 -13 c-18 -10
-27 -10 -32 -2 -4 6 -11 8 -15 3 -4 -4 1 -14 12 -23 19 -15 19 -15 -5 -8 -40
11 -66 15 -52 9 10 -5 9 -9 -5 -20 -16 -13 -13 -14 27 -9 l45 5 -30 -14 -30
-14 32 -1 c17 -1 35 4 38 9 3 6 16 9 28 9 20 -1 20 -2 2 -6 -11 -3 -24 -11
-30 -18 -12 -14 -58 -28 -49 -14 8 14 -6 11 -22 -5 -20 -20 -17 -28 6 -21 26
8 27 -17 3 -36 -16 -13 -17 -12 -4 4 8 9 11 20 8 23 -3 3 -13 -9 -23 -28 -15
-30 -18 -31 -25 -13 -5 14 -8 15 -9 5 -1 -12 -3 -11 -8 2 -6 16 -12 14 -45
-15 -20 -17 -37 -39 -37 -47 0 -12 -2 -13 -9 -1 -7 11 -11 10 -20 -5 -11 -17
-11 -16 -5 6 3 14 13 31 22 37 8 7 12 16 7 20 -4 5 -10 2 -12 -5 -3 -6 -9 -10
-14 -6 -5 3 -9 0 -9 -5 0 -6 -5 -11 -10 -11 -7 0 -7 7 1 22 10 18 9 20 -6 15
-9 -4 -19 -7 -21 -7 -3 0 -3 -4 1 -9 3 -5 0 -13 -5 -16 -8 -5 -5 -14 7 -28 10
-11 12 -17 5 -13 -9 5 -13 3 -11 -5 5 -39 -2 -100 -11 -94 -5 3 -10 -2 -10
-13 0 -10 -3 -22 -7 -26 -4 -4 -9 -19 -11 -34 -2 -15 -6 -29 -10 -32 -4 -3
-14 -18 -22 -35 -15 -31 -48 -64 -64 -65 -4 0 2 9 15 20 28 22 13 27 -17 5
-29 -22 -40 -18 -18 7 19 21 19 21 0 14 -16 -5 -17 -4 -6 9 11 13 10 14 -6 9
-10 -4 -25 -12 -32 -17 -7 -6 -46 -13 -86 -16 -65 -6 -72 -4 -71 11 1 10 5 21
10 25 4 5 5 2 1 -4 -4 -7 -3 -13 2 -13 13 0 23 27 16 43 -2 7 -23 14 -47 16
-51 3 -58 8 -32 27 20 15 20 15 -5 34 -19 15 -21 20 -8 20 9 0 18 -6 21 -12 3
-10 9 -10 26 0 11 6 28 12 36 12 8 0 15 7 15 15 0 9 12 18 29 21 22 5 28 11
24 23 -3 12 -1 11 11 -3 16 -20 16 -20 16 0 0 16 2 17 10 4 8 -13 10 -12 10 3
0 13 5 17 19 12 19 -6 51 17 51 36 0 6 4 7 10 4 11 -7 60 38 60 56 0 6 7 8 16
5 13 -5 15 -1 10 19 -4 14 -2 25 4 25 5 0 10 -5 10 -11 0 -5 5 -7 10 -4 6 3
10 13 10 21 0 9 -5 12 -11 8 -8 -5 -8 -1 0 13 6 11 7 24 3 28 -4 5 1 5 11 2
14 -5 17 -1 17 22 0 18 8 34 23 44 22 16 21 16 -19 16 -38 1 -41 3 -42 30 0
24 3 28 21 24 20 -4 20 -3 5 7 -16 10 -50 74 -73 135 -5 13 -9 15 -12 7 -8
-21 -23 -2 -24 31 0 18 -3 26 -6 20 -7 -20 -31 -15 -38 6 -3 11 -14 20 -23 20
-9 0 -32 2 -49 4 -18 2 -33 1 -33 -2 0 -7 -97 -4 -116 3 -9 3 -14 -2 -14 -14z
m516 -1272 c-4 7 -2 12 4 12 8 0 9 -7 5 -17 -4 -10 -8 -27 -10 -37 -1 -10 -14
-29 -28 -42 -26 -22 -37 -42 -17 -29 17 10 11 -7 -7 -22 -17 -14 -17 -14 0 -9
9 3 17 1 17 -4 0 -6 -6 -10 -12 -10 -7 0 -29 -13 -48 -29 -27 -23 -32 -32 -23
-43 17 -20 1 -38 -40 -45 -33 -5 -37 -3 -37 17 0 15 -5 20 -14 17 -13 -5 -20
18 -32 108 0 6 -4 18 -8 27 -10 22 1 39 19 31 9 -3 15 1 15 10 0 20 22 37 56
43 16 3 34 10 40 15 8 7 13 6 16 -2 3 -10 14 -9 44 3 30 12 42 13 53 4 12 -8
13 -8 7 2z"/>
<path d="M12767 2447 c-6 -16 -47 -30 -47 -16 0 19 -42 9 -47 -12 -5 -16 -11
-19 -33 -14 -16 3 -31 1 -35 -4 -9 -15 -42 -14 -48 2 -4 9 -7 9 -18 0 -10 -10
-9 -16 4 -31 12 -13 14 -21 6 -29 -7 -7 -1 -14 21 -22 39 -13 35 -30 -15 -56
-33 -17 -35 -20 -17 -23 12 -2 22 -7 22 -11 0 -11 -42 -32 -67 -34 -13 0 -25
-7 -27 -14 -3 -7 -19 -13 -36 -13 -27 0 -30 3 -25 21 7 20 6 20 -19 4 -30 -20
-35 -40 -7 -32 24 6 46 -7 37 -22 -9 -14 -36 -15 -36 -1 0 18 -18 11 -25 -10
-3 -11 -13 -20 -21 -20 -8 0 -14 -4 -14 -10 0 -5 18 -10 40 -10 27 0 40 -4 40
-13 0 -16 -32 -47 -48 -47 -7 0 -12 -7 -12 -15 0 -8 -5 -15 -10 -15 -6 0 -8
-11 -4 -25 5 -20 3 -24 -10 -19 -10 4 -16 1 -16 -8 0 -8 -5 -19 -12 -26 -9 -9
-15 -7 -25 6 -10 12 -16 13 -19 5 -4 -8 -11 -7 -24 5 -53 48 -69 56 -63 32 3
-11 14 -20 24 -20 30 0 22 -17 -12 -24 -17 -3 -42 -15 -56 -26 -14 -11 -29
-17 -34 -14 -5 2 -14 -4 -21 -16 -13 -20 -58 -29 -58 -11 0 14 -40 25 -51 14
-16 -16 2 -43 27 -43 13 0 24 -5 24 -11 0 -6 -6 -9 -14 -6 -8 3 -28 2 -44 -3
-16 -4 -44 -5 -62 -1 l-33 6 26 29 c18 20 27 39 26 60 -1 24 -3 26 -6 9 -3
-14 -12 -23 -23 -23 -10 0 -20 -6 -23 -12 -3 -10 -8 -9 -22 2 -16 13 -19 13
-29 -4 -20 -34 -71 -86 -84 -86 -7 0 -16 10 -21 21 -5 14 -18 23 -35 25 -27 3
-28 1 -23 -34 3 -20 3 -31 0 -24 -2 6 -11 12 -18 12 -8 0 -15 10 -17 22 -2 13
-11 24 -20 26 -15 3 -15 -1 3 -37 10 -22 19 -42 19 -44 0 -2 -14 -1 -32 1 -26
4 -30 2 -25 -12 4 -10 1 -19 -8 -22 -21 -9 -19 -22 6 -29 l21 -7 -22 -15 c-11
-8 -20 -22 -19 -31 3 -32 -1 -42 -15 -42 -21 0 -28 -15 -20 -45 5 -22 11 -25
31 -20 13 3 29 3 34 -1 16 -10 -21 -44 -48 -44 -12 0 -23 -4 -23 -10 0 -5 5
-10 11 -10 5 0 7 -4 4 -10 -10 -16 -57 -11 -71 7 -11 16 -13 16 -25 -9 -11
-26 -13 -26 -26 -10 -13 15 -14 12 -8 -28 3 -24 11 -50 17 -58 9 -11 8 -16 -5
-23 -26 -15 -21 -27 16 -37 l32 -9 -28 -8 c-19 -5 -35 -2 -53 10 -16 10 -30
13 -37 7 -7 -5 -27 -12 -45 -15 -18 -4 -40 -13 -47 -21 -14 -14 -55 -11 -55 4
0 4 14 10 32 14 17 3 29 8 27 11 -6 5 -69 -10 -112 -27 -21 -8 -27 -16 -23
-31 4 -17 1 -18 -30 -12 -31 5 -39 2 -60 -22 -19 -22 -26 -25 -33 -14 -11 17
-51 5 -51 -16 0 -9 -8 -22 -17 -29 -11 -8 -13 -13 -5 -14 16 0 55 -40 48 -48
-4 -3 -30 -1 -59 5 -73 15 -134 1 -97 -22 6 -4 8 -11 5 -16 -4 -5 -1 -9 4 -9
6 0 11 -7 11 -15 0 -26 -29 -16 -45 16 -12 23 -21 29 -36 24 -12 -4 -21 -1
-25 9 -8 22 -31 20 -51 -4 -10 -11 -23 -20 -30 -20 -7 0 -12 -10 -10 -23 2
-20 -2 -22 -45 -21 -50 0 -56 -4 -36 -24 7 -7 8 -12 2 -12 -5 0 -10 -10 -10
-22 -4 -78 -16 -100 -28 -53 -4 15 -11 23 -17 19 -8 -4 -7 -10 0 -17 6 -6 11
-25 11 -42 0 -17 5 -36 12 -43 14 -14 10 -15 -49 -12 -32 1 -43 -2 -43 -13 0
-17 29 -27 78 -27 28 0 32 3 32 25 0 18 5 25 18 25 26 0 34 11 21 27 -7 8 -8
13 -1 13 5 0 18 -12 27 -27 16 -23 16 -25 1 -20 -10 4 -16 1 -16 -7 0 -8 8
-13 17 -12 10 0 18 -6 18 -14 0 -11 10 -15 33 -13 21 1 32 -3 29 -10 -2 -8
-22 -11 -50 -9 -43 3 -48 1 -57 -22 -7 -20 -17 -26 -39 -26 -22 0 -30 -5 -33
-24 -4 -18 0 -26 15 -30 11 -2 16 -9 12 -16 -4 -6 -15 -8 -25 -5 -10 3 -21 2
-24 -3 -3 -6 4 -12 17 -16 12 -3 24 -1 25 4 4 12 52 13 71 1 10 -7 8 -12 -10
-26 -24 -17 -23 -17 24 -10 41 5 47 4 47 -12 -1 -57 -30 -81 -62 -50 -19 19
-38 10 -38 -19 0 -13 -4 -24 -10 -24 -5 0 -10 5 -10 10 0 18 -53 61 -68 55 -7
-3 -16 -5 -18 -5 -2 0 -2 -11 2 -25 3 -14 2 -25 -2 -25 -11 0 -12 -91 -1 -107
4 -6 4 -18 1 -27 -3 -9 -2 -16 3 -16 21 0 30 24 25 67 -4 35 -2 44 7 38 7 -4
10 -13 7 -21 -3 -7 -1 -16 4 -19 6 -4 10 -15 10 -25 0 -14 10 -21 36 -26 24
-4 32 -9 23 -15 -10 -6 -9 -10 6 -15 18 -7 18 -8 -1 -15 -17 -7 -17 -8 -1 -8
21 -1 23 -31 2 -31 -8 0 -15 -9 -15 -20 0 -16 -7 -20 -32 -21 -18 0 -41 -4
-51 -8 -17 -6 -16 -8 10 -20 l28 -13 -25 -11 c-31 -14 -40 -26 -33 -46 3 -9
-7 1 -23 21 -34 43 -40 45 -47 17 -7 -28 -31 -19 -32 12 0 13 -4 25 -10 27 -5
1 -10 -3 -10 -8 0 -6 -6 -15 -14 -20 -13 -7 -13 -11 -1 -25 13 -15 11 -17 -15
-15 -17 1 -34 2 -40 1 -18 -2 -67 -50 -61 -59 8 -13 -12 -28 -47 -36 -21 -5
-28 -3 -25 6 3 7 17 14 32 16 21 3 25 6 16 17 -8 9 -8 15 0 20 14 9 13 36 -2
34 -29 -3 -39 2 -49 29 -10 25 -12 26 -19 7 -4 -11 -5 -36 -3 -55 5 -38 -6
-55 -42 -62 -11 -2 -21 -12 -23 -22 -4 -17 2 -18 80 -13 101 6 121 13 113 38
-4 11 -2 19 4 19 6 0 11 -9 11 -20 0 -11 5 -20 10 -20 6 0 10 4 10 9 0 13 32
18 60 10 16 -4 19 -7 8 -8 -10 -1 -18 -8 -18 -16 0 -12 17 -15 94 -15 66 0 96
4 99 13 3 9 9 9 26 0 11 -7 46 -13 76 -13 48 0 55 2 55 20 0 13 7 20 20 20 13
0 20 -7 20 -20 0 -18 7 -20 81 -20 51 0 78 4 74 10 -3 5 -1 10 4 10 6 0 11 -4
11 -10 0 -7 332 -10 975 -10 l975 0 -2 1220 c-2 881 -6 1222 -14 1230 -8 8
-13 8 -17 -3z"/>
<path d="M9484 2311 c5 -7 -10 -11 -46 -12 -29 -1 -61 -2 -70 -3 -9 -1 -33
-17 -52 -35 -20 -19 -36 -31 -36 -25 -1 13 -50 -69 -50 -83 0 -23 24 -9 47 27
12 19 23 31 23 26 0 -5 6 -3 14 3 10 9 36 10 83 6 64 -7 74 -5 136 24 37 17
67 33 67 36 0 8 -54 32 -89 40 -23 5 -31 4 -27 -4z"/>
<path d="M9688 2284 c-3 -3 -4 -14 -1 -25 5 -18 16 -24 38 -19 6 1 7 -2 3 -6
-4 -4 -3 -13 3 -20 9 -10 7 -15 -5 -20 -9 -3 -14 -10 -11 -14 3 -5 -3 -11 -12
-14 -30 -10 -144 -23 -170 -20 -18 2 -23 -2 -20 -14 3 -18 7 -18 47 -7 l25 7
-24 -18 c-13 -9 -49 -20 -80 -23 -46 -6 -52 -8 -32 -15 18 -6 21 -10 10 -17
-10 -6 -6 -9 14 -9 15 0 27 -4 27 -10 0 -5 10 -10 23 -10 12 0 29 -5 37 -10
11 -7 -2 -10 -43 -10 -39 0 -56 -4 -51 -11 3 -6 15 -8 26 -6 20 6 78 -22 78
-36 0 -5 -10 -5 -21 -2 -16 5 -19 4 -14 -6 6 -9 4 -11 -8 -6 -9 3 -19 2 -22
-3 -4 -6 7 -10 23 -10 31 0 135 -30 128 -37 -2 -3 -27 2 -54 11 -47 13 -51 13
-55 -2 -4 -15 -5 -16 -6 -1 -1 13 -13 18 -46 21 -28 2 -41 0 -35 -6 18 -18 10
-26 -27 -27 -21 0 -31 -3 -23 -6 8 -3 17 -9 20 -13 3 -4 21 -15 40 -24 37 -17
72 -37 80 -47 3 -3 16 -12 30 -19 18 -10 25 -10 28 -1 3 9 7 9 19 0 11 -9 19
-10 32 -2 13 8 17 7 17 -7 0 -11 -6 -16 -15 -12 -9 3 -12 1 -7 -6 11 -19 -5
-14 -20 5 -7 10 -15 15 -18 12 -3 -3 2 -13 12 -22 102 -98 132 -123 133 -113
1 6 4 0 8 -14 5 -16 13 -24 24 -22 22 4 22 -14 1 -22 -19 -7 -78 25 -63 35 14
9 -51 81 -99 111 -21 12 -41 28 -45 35 -4 7 -13 13 -19 13 -6 0 -4 -8 5 -18
10 -10 14 -22 10 -27 -5 -4 -3 -5 3 -2 7 4 30 -13 52 -37 22 -24 44 -41 48
-38 4 4 4 1 0 -5 -4 -8 -1 -13 9 -13 9 0 14 -4 11 -8 -8 -13 23 -52 50 -63 20
-7 30 -5 46 11 12 11 26 20 32 20 6 0 6 4 -1 11 -6 6 -9 17 -7 24 3 7 1 16 -4
19 -5 3 -8 -6 -6 -19 1 -14 -1 -23 -6 -20 -4 2 -7 16 -7 30 0 22 3 24 33 19
30 -5 34 -2 34 16 0 14 5 20 18 18 11 -2 18 4 20 20 2 12 10 22 19 22 27 0
-18 41 -87 80 -33 18 -58 36 -55 38 2 3 34 -14 69 -36 70 -44 103 -55 98 -34
-1 6 4 12 12 12 8 0 19 14 25 30 7 21 17 30 32 30 18 0 19 2 9 15 -9 11 -9 15
-1 15 12 0 36 48 32 64 -1 4 7 16 19 26 26 22 25 30 -2 31 -22 1 -22 1 2 9 15
5 19 8 8 9 -9 1 -23 7 -30 15 -21 21 -78 47 -88 41 -5 -3 -11 -1 -15 5 -3 6 1
13 10 16 13 5 14 9 4 15 -7 4 -21 3 -31 -2 -17 -9 -23 -2 -19 24 0 4 -6 7 -15
7 -10 0 -14 6 -11 14 3 8 -1 17 -9 20 -9 3 -14 12 -12 18 5 15 -15 38 -32 38
-6 0 -8 5 -5 10 3 6 -4 10 -17 10 -13 0 -41 9 -63 20 -40 21 -57 24 -67 14z
m100 -196 c28 2 33 1 22 -7 -13 -10 -13 -12 0 -21 13 -9 13 -10 0 -10 -11 -1
-10 -4 4 -15 19 -14 19 -15 1 -15 -17 0 -17 -1 3 -22 l21 -23 -49 -2 c-27 -2
-52 2 -55 7 -3 6 -45 11 -93 11 -48 1 -79 3 -69 6 10 3 16 11 14 18 -8 19 13
35 46 35 25 0 71 28 50 31 -4 1 8 4 27 8 19 3 36 4 38 1 1 -3 19 -4 40 -2z"/>
<path d="M9406 1818 c5 -8 0 -9 -17 -5 -21 6 -20 3 11 -27 19 -19 39 -31 44
-28 5 3 6 0 3 -5 -4 -6 0 -16 8 -23 8 -7 15 -17 15 -23 0 -6 10 -21 22 -34 12
-13 19 -26 15 -29 -3 -3 -20 14 -37 38 -35 48 -133 139 -124 113 4 -8 15 -20
25 -26 11 -5 19 -17 19 -25 0 -11 6 -14 16 -10 8 3 12 2 9 -4 -3 -6 2 -22 13
-38 19 -26 50 -79 78 -131 13 -24 44 -38 44 -20 0 5 -9 23 -20 41 -26 43 -26
58 0 25 11 -14 20 -28 20 -30 0 -3 5 -18 10 -32 9 -23 13 -25 25 -15 8 7 12
17 8 24 -4 6 0 5 9 -2 46 -37 10 54 -42 108 -8 8 -24 26 -35 40 -11 14 -41 43
-68 64 -47 39 -57 57 -18 37 20 -11 144 -148 171 -191 39 -60 101 -102 116
-78 5 7 3 8 -6 3 -9 -5 -10 -2 -6 12 5 15 -6 36 -39 77 -43 52 -67 73 -49 44
6 -9 3 -9 -9 0 -9 8 -15 19 -14 25 1 7 -3 11 -10 10 -6 -1 -28 13 -49 32 -21
19 -44 35 -50 35 -7 0 -17 7 -22 16 -5 9 -24 23 -41 30 -21 9 -29 9 -25 2z"/>
<path d="M9755 1090 c-3 -6 4 -14 17 -19 23 -10 22 -10 -4 -10 -16 -1 -28 3
-28 9 0 5 -13 8 -29 7 -18 -1 -27 -7 -24 -14 3 -7 9 -11 13 -8 4 3 13 -2 20
-11 11 -12 15 -12 21 -2 6 8 9 2 9 -17 0 -17 6 -37 13 -44 10 -11 9 -13 -6 -8
-11 4 -25 0 -35 -9 -10 -11 -17 -13 -20 -5 -4 11 -32 16 -32 5 0 -4 8 -13 18
-21 15 -13 15 -13 -5 -3 -12 5 -25 15 -28 20 -3 6 -11 10 -17 10 -6 0 -3 -9 7
-20 18 -20 17 -20 -11 -20 -17 0 -36 6 -44 13 -8 6 -7 3 3 -9 9 -11 17 -26 17
-32 0 -7 7 -12 16 -12 8 0 13 -4 9 -9 -3 -5 9 -20 27 -32 18 -13 28 -17 22 -9
-15 20 -25 50 -16 49 26 -4 34 1 22 16 -17 20 -4 19 34 -4 43 -26 108 -18 104
13 -1 11 2 27 6 35 7 10 2 20 -15 34 -16 13 -20 21 -11 24 6 3 10 9 6 14 -3 5
0 9 5 9 6 0 11 5 11 11 0 6 -7 9 -15 5 -13 -5 -14 -2 -4 15 6 11 8 23 5 27 -3
3 -6 1 -6 -5 0 -6 -11 -8 -25 -5 -14 2 -22 8 -19 13 3 5 3 9 0 9 -3 0 -8 -5
-11 -10z"/>
<path d="M9717 833 c5 -11 3 -14 -6 -8 -10 6 -11 3 -1 -15 11 -20 10 -21 -8
-11 -17 9 -20 8 -17 -7 1 -9 -2 -23 -8 -30 -8 -11 -5 -18 13 -32 14 -10 21
-22 17 -26 -4 -4 -12 -3 -18 3 -6 6 -18 9 -26 6 -12 -5 -14 -1 -9 15 4 12 2
23 -5 28 -9 5 -10 2 -6 -10 6 -15 3 -17 -24 -11 -28 6 -30 5 -20 -13 6 -11 16
-23 23 -26 9 -4 8 -5 -2 -5 -8 1 -28 1 -45 0 l-30 -2 39 -19 c41 -21 58 -38
50 -51 -2 -4 5 -10 16 -14 11 -3 20 -13 20 -21 0 -8 9 -14 20 -14 11 0 20 7
20 15 0 8 5 15 11 15 5 0 7 5 3 11 -5 8 -9 8 -14 -1 -5 -8 -10 -9 -14 -2 -3 6
0 13 6 15 9 4 1 16 -21 35 -25 21 -30 30 -19 34 18 7 48 -15 48 -36 0 -9 7
-16 15 -16 8 0 15 5 15 12 0 6 3 8 7 5 3 -4 12 -2 19 4 20 16 -14 67 -55 80
l-34 12 24 13 c20 11 28 10 46 -2 12 -8 25 -14 28 -14 9 0 -7 53 -23 78 -17
26 -45 31 -35 5z"/>
<path d="M9540 663 c0 -5 14 -30 30 -56 33 -53 38 -66 14 -43 -18 19 -30 20
-40 4 -4 -6 -3 -8 4 -4 6 3 14 0 19 -7 4 -8 17 -19 28 -26 17 -10 16 -10 -10
-5 -16 4 -40 15 -52 24 l-21 16 21 14 c12 8 26 13 30 12 5 -1 6 2 2 7 -3 6
-11 9 -18 7 -7 -1 -9 -1 -5 1 11 6 -10 43 -24 43 -7 0 -7 -4 -1 -12 18 -24 13
-57 -9 -64 -19 -6 -18 -9 17 -41 20 -19 34 -37 31 -40 -3 -4 -16 3 -29 15 -13
12 -31 22 -41 22 -9 0 -35 9 -56 20 -22 11 -40 16 -40 11 0 -5 9 -11 21 -14
13 -4 18 -10 13 -18 -4 -8 -3 -10 4 -5 6 4 19 3 29 -2 10 -5 35 -17 56 -26 21
-9 37 -23 37 -32 0 -9 8 -23 18 -30 16 -12 16 -13 0 -14 -18 0 -41 -32 -33
-44 3 -3 2 -3 -2 0 -5 3 -8 10 -8 14 0 11 -94 60 -113 60 -9 0 -11 -7 -7 -21
6 -19 4 -21 -16 -15 -24 7 -49 14 -59 15 -3 1 2 6 10 11 12 8 11 10 -7 10 -26
0 -31 -18 -8 -26 8 -4 13 -9 11 -13 -2 -3 8 -15 23 -25 l26 -20 -20 24 c-21
24 -5 20 27 -8 9 -7 21 -11 27 -7 12 7 78 -21 88 -38 4 -6 -26 -8 -85 -5 -67
3 -96 9 -110 21 -10 9 -27 17 -37 17 -18 0 -18 -1 1 -15 12 -9 14 -14 6 -15
-7 0 -11 -4 -8 -9 4 -5 -4 -7 -16 -3 -14 3 -19 1 -14 -6 9 -16 -23 -4 -47 16
-16 14 -17 14 -12 0 5 -12 -3 -18 -32 -25 -32 -9 -35 -11 -19 -18 13 -6 21 -4
24 4 5 14 65 -47 77 -77 5 -14 4 -15 -6 -4 -17 16 -28 15 -25 -3 3 -21 72 -92
97 -100 11 -4 26 -2 32 4 8 8 6 11 -6 11 -9 0 -17 4 -17 9 0 13 25 20 49 14
12 -3 28 0 36 7 10 9 15 9 15 1 0 -6 4 -11 10 -11 17 0 -1 28 -21 33 -10 3
-19 10 -19 15 0 14 48 21 79 12 14 -5 19 -9 11 -9 -10 -1 -7 -6 9 -15 17 -9
20 -15 10 -18 -22 -7 50 -41 77 -35 13 2 21 0 18 -4 -3 -5 -13 -9 -23 -9 -10
0 -25 -8 -32 -17 -10 -12 -10 -15 -1 -9 7 4 19 0 28 -8 23 -24 64 -21 64 4 0
11 -7 20 -16 20 -8 0 -12 5 -9 10 6 9 69 -30 86 -53 3 -4 11 -2 18 6 9 12 7
16 -9 20 -11 3 -20 10 -20 17 0 6 5 8 10 5 6 -3 10 -2 10 4 0 5 -4 13 -10 16
-5 3 -10 17 -10 31 0 25 -14 33 -24 12 -3 -7 -4 -4 -3 7 2 12 9 19 18 17 12
-1 15 6 14 28 -1 17 2 33 7 36 4 3 8 11 8 17 0 7 -4 6 -10 -3 -9 -14 -11 -13
-14 10 0 6 -8 15 -16 21 -12 8 -11 9 6 5 19 -6 20 -2 20 41 -1 58 -10 70 -48
65 -17 -3 -28 0 -28 7 0 7 4 10 8 7 5 -3 30 -2 56 2 l47 7 -21 23 -21 22 21 8
c20 7 20 8 -5 42 -15 19 -31 34 -37 32 -12 -3 -58 44 -58 61 0 8 3 8 12 -1 7
-7 16 -12 22 -12 5 0 1 6 -9 14 -11 8 -24 12 -31 9 -6 -2 -19 3 -28 12 -9 9
-16 12 -16 8z"/>
<path d="M9186 150 c1 -30 12 -52 22 -46 4 2 13 -3 20 -10 11 -13 10 -14 -12
-10 -18 3 -26 0 -26 -10 0 -8 7 -14 15 -14 8 0 15 -4 15 -9 0 -4 -11 -6 -25
-3 -28 5 -31 -4 -11 -31 11 -15 29 -17 127 -16 63 1 104 4 91 6 -16 3 -22 9
-18 20 3 8 6 17 6 19 0 11 26 2 54 -19 24 -18 46 -24 94 -26 38 -1 62 2 62 8
0 6 -6 11 -12 11 -7 1 -2 7 11 14 19 11 21 14 7 19 -9 4 -16 2 -16 -3 0 -14
-41 -23 -53 -11 -14 14 -30 14 -22 1 7 -12 -8 -14 -19 -2 -4 4 -17 8 -29 9
-43 3 -122 21 -99 22 17 1 22 6 20 19 -3 13 -14 17 -50 17 -32 0 -55 7 -77 23
-16 12 -36 22 -43 22 -10 0 -10 2 0 9 10 6 8 9 -10 13 -20 4 -23 0 -22 -22z"/>
</g>
</svg>
