<?xml version="1.0" standalone="no"?>
<!DOCTYPE svg PUBLIC "-//W3C//DTD SVG 20010904//EN"
 "http://www.w3.org/TR/2001/REC-SVG-20010904/DTD/svg10.dtd">
<svg version="1.0" xmlns="http://www.w3.org/2000/svg"
 width="179.000000pt" height="179.000000pt" viewBox="0 0 179.000000 179.000000"
 preserveAspectRatio="xMidYMid meet">
<metadata>
Created by potrace 1.16, written by Peter Selinger 2001-2019
</metadata>
<g transform="translate(0.000000,179.000000) scale(0.100000,-0.100000)"
fill="#000000" stroke="none">
<path d="M725 1664 c-329 -78 -573 -351 -615 -686 -33 -274 85 -556 304 -722
110 -83 238 -139 369 -161 l38 -6 -8 38 c-12 58 -9 229 6 317 17 95 14 99 -81
90 -83 -8 -129 0 -163 29 -77 64 -135 126 -135 142 0 10 14 50 32 88 30 64 31
72 20 113 -26 98 -12 139 93 270 41 51 75 96 75 100 0 4 -18 35 -39 68 -76
117 -62 149 33 78 28 -22 67 -49 87 -60 l36 -22 7 53 c3 28 6 69 6 89 0 41 29
71 59 61 9 -3 59 -49 111 -102 52 -53 128 -119 168 -145 104 -68 174 -157 346
-438 48 -79 90 -120 163 -156 l41 -21 11 63 c72 414 -185 811 -593 916 -95 24
-278 26 -371 4z"/>
</g>
</svg>
