<?xml version="1.0" standalone="no"?>
<!DOCTYPE svg PUBLIC "-//W3C//DTD SVG 20010904//EN"
 "http://www.w3.org/TR/2001/REC-SVG-20010904/DTD/svg10.dtd">
<svg version="1.0" xmlns="http://www.w3.org/2000/svg"
 width="900.000000pt" height="460.000000pt" viewBox="0 0 900.000000 460.000000"
 preserveAspectRatio="xMidYMid meet">
<metadata>
Created by potrace 1.16, written by Peter Selinger 2001-2019
</metadata>
<g transform="translate(0.000000,460.000000) scale(0.100000,-0.100000)"
fill="#000000" stroke="none">
<path d="M4055 3570 c-97 -15 -234 -58 -323 -100 -297 -141 -540 -434 -622
-749 -19 -71 -37 -199 -43 -301 l-2 -45 -57 -3 c-77 -4 -79 1 -74 187 l4 151
-139 0 -139 0 -2 -167 -3 -168 -73 -3 -73 -3 3 -97 3 -97 73 -3 72 -3 0 -390
0 -390 138 3 137 3 0 385 0 385 79 0 78 0 24 -84 c104 -357 338 -627 663 -762
87 -36 230 -74 319 -84 l64 -7 -5 63 c-10 125 -17 172 -25 183 -5 6 -16 31
-26 54 -9 24 -31 67 -50 95 -19 31 -35 72 -39 100 -4 27 -14 58 -22 70 -8 12
-15 32 -15 44 0 13 -9 28 -20 35 -11 7 -20 18 -20 24 0 22 -33 79 -61 105 -15
15 -25 29 -22 32 3 3 6 24 7 46 2 36 0 41 -20 41 -12 0 -27 -7 -35 -16 -7 -8
-21 -13 -30 -11 -10 3 -26 -4 -35 -14 -17 -19 -7 -28 12 -9 14 14 40 -5 28
-22 -14 -18 -16 -68 -3 -68 8 0 10 -13 6 -36 -5 -31 -4 -34 9 -23 19 16 26 7
26 -35 0 -20 4 -36 9 -36 5 0 9 8 9 17 0 9 3 14 6 10 11 -11 13 -127 2 -127
-19 0 -106 70 -162 131 -175 188 -246 427 -202 679 13 72 29 120 67 199 45 92
62 115 147 200 76 75 115 106 180 139 45 24 82 45 82 48 0 3 -10 18 -22 35
-18 24 -23 44 -23 92 l0 62 32 3 c32 3 117 -34 185 -80 37 -25 85 -25 135 1
23 12 54 23 70 23 30 1 43 21 109 176 20 46 36 67 58 79 l31 16 -25 10 c-34
13 -380 18 -455 7z"/>
<path d="M4540 3546 c0 -6 4 -16 9 -21 16 -17 51 -118 51 -147 0 -16 -4 -28
-10 -28 -5 0 -10 -7 -10 -15 0 -8 4 -15 10 -15 15 0 39 -55 34 -77 -3 -11 1
-25 10 -32 9 -8 16 -22 16 -32 0 -12 13 -26 35 -36 21 -10 38 -28 44 -45 6
-15 16 -28 24 -28 7 0 19 -11 26 -24 7 -12 47 -54 88 -91 l75 -68 139 139 139
139 -58 58 c-62 64 -185 161 -258 203 -103 61 -364 147 -364 120z"/>
<path d="M745 3011 c-310 -50 -576 -266 -669 -542 -39 -116 -49 -197 -43 -343
6 -155 24 -229 82 -351 147 -306 448 -472 820 -452 181 10 337 66 472 169 58
44 63 44 123 -17 76 -77 207 -120 345 -113 112 6 185 40 248 117 25 31 37 18
37 -40 l0 -49 135 0 135 0 0 490 0 490 -135 0 -135 0 0 -44 c0 -25 -4 -47 -9
-50 -5 -4 -30 14 -54 38 -66 64 -139 90 -252 89 -190 0 -347 -98 -433 -268
-33 -66 -44 -114 -51 -225 l-6 -104 -69 -58 c-198 -166 -455 -198 -686 -86
-78 37 -182 138 -223 215 -63 117 -85 314 -51 446 47 184 200 345 377 399 58
17 87 20 195 16 106 -4 138 -9 194 -31 82 -32 164 -83 229 -144 l49 -46 99 94
98 94 -46 48 c-99 104 -264 198 -416 238 -88 23 -275 33 -360 20z m1239 -872
c21 -6 57 -28 81 -50 102 -94 121 -243 45 -362 -37 -59 -91 -94 -163 -108
-124 -22 -226 27 -282 136 -71 139 -16 315 120 376 45 21 139 25 199 8z"/>
<path d="M7522 2893 c-103 -50 -122 -197 -37 -272 94 -82 227 -50 271 65 15
40 16 53 5 93 -13 49 -49 94 -93 117 -36 19 -105 17 -146 -3z"/>
<path d="M5775 2453 c-139 -17 -277 -94 -355 -198 l-35 -47 -5 104 -5 103
-289 0 -289 0 -3 -30 c-4 -50 -21 -114 -33 -129 -7 -8 -9 -20 -5 -27 4 -7 -2
-30 -13 -53 -22 -44 -43 -105 -43 -124 0 -9 33 -12 115 -12 86 0 115 -3 115
-13 0 -20 -76 -144 -121 -198 -42 -51 -120 -112 -155 -123 -19 -6 -22 -2 -30
41 -4 26 -6 52 -5 57 1 4 -4 14 -10 22 -10 12 -16 10 -37 -12 -25 -24 -27 -24
-39 -8 -7 10 -13 21 -13 26 0 4 -7 8 -15 8 -10 0 -15 -10 -15 -29 0 -16 7 -34
15 -41 8 -7 15 -9 15 -4 0 4 5 3 12 -4 9 -9 9 -15 1 -23 -6 -6 -9 -18 -6 -25
6 -16 -6 -18 -40 -5 -22 9 -24 14 -20 54 4 34 0 56 -18 92 -13 25 -27 49 -31
51 -8 5 -4 -20 7 -48 4 -11 3 -18 -4 -18 -6 0 -11 5 -11 10 0 6 -1 12 -1 15
-1 2 -7 26 -14 52 -7 26 -17 49 -23 51 -6 2 -8 -6 -4 -20 5 -21 4 -22 -14 -8
-18 15 -18 14 0 -15 15 -23 16 -27 3 -17 -9 8 -20 11 -24 9 -5 -3 -17 1 -28 9
-10 8 -13 14 -7 14 8 0 10 9 6 26 -6 23 -4 25 15 19 12 -3 21 -2 21 4 0 20
-13 41 -26 41 -7 0 -29 9 -49 20 -20 11 -42 20 -50 20 -7 0 -17 5 -21 12 -5 8
1 9 22 5 44 -9 59 4 35 32 -13 15 -20 18 -24 9 -3 -10 -7 -10 -17 -1 -10 9 -9
15 4 28 19 19 21 41 5 51 -14 9 -29 -15 -21 -34 3 -9 1 -13 -5 -9 -11 7 -63
-14 -63 -25 0 -5 -5 -8 -11 -8 -8 0 -7 5 1 15 7 9 11 16 9 18 -53 30 -69 34
-69 17 0 -5 7 -10 15 -10 18 0 20 -21 4 -37 -12 -12 -3 -37 11 -28 5 3 12 0
15 -6 4 -6 -2 -13 -14 -16 -24 -6 -28 -23 -6 -23 9 0 18 -6 21 -14 3 -8 12
-12 20 -9 8 3 14 2 14 -2 0 -9 -37 -56 -44 -56 -27 3 -45 -3 -66 -21 -15 -13
-20 -23 -13 -25 7 -2 9 -11 6 -20 -5 -13 -3 -14 16 -4 12 7 25 19 28 27 3 8
14 14 24 14 18 0 20 -10 10 -72 -2 -12 -36 -9 -49 4 -19 19 -23 4 -6 -21 10
-14 22 -20 33 -16 28 8 19 -29 -13 -62 -17 -17 -23 -29 -16 -31 7 -3 15 0 19
6 12 20 35 18 36 -3 0 -16 6 -20 33 -17 30 2 32 0 22 -18 -12 -22 -7 -25 20
-10 15 8 21 5 33 -18 8 -16 10 -36 6 -48 -4 -10 -5 -30 -2 -43 4 -16 2 -22 -6
-17 -12 8 -14 -4 -5 -28 3 -9 13 -16 20 -16 8 0 18 -8 21 -17 4 -10 10 -20 14
-23 3 -3 10 -20 14 -37 7 -36 -7 -45 -24 -15 -6 9 -11 13 -11 8 0 -5 6 -17 14
-25 16 -19 29 -81 17 -81 -5 0 -11 -9 -14 -19 -3 -14 -1 -18 9 -14 21 8 18
-37 -3 -52 -12 -9 -25 -10 -42 -4 -27 11 -31 9 -35 -18 -5 -25 11 -42 35 -36
15 4 18 2 13 -11 -4 -10 -1 -16 9 -16 26 0 40 -26 22 -43 -14 -14 -12 -16 12
-19 66 -8 123 28 123 79 0 27 4 33 20 33 37 0 173 31 244 56 96 33 226 105
304 166 86 69 205 214 267 327 28 50 53 91 58 91 4 0 7 -12 7 -26 0 -42 37
-154 69 -209 66 -115 174 -204 298 -247 96 -32 261 -32 346 1 124 49 234 147
301 271 l27 50 -154 0 c-152 0 -154 0 -178 -26 -63 -68 -185 -89 -279 -47 -68
30 -130 108 -130 164 0 18 11 19 385 19 l384 0 7 35 c14 74 -16 216 -67 317
-96 190 -319 308 -534 281z m134 -259 c56 -16 123 -69 147 -115 31 -61 37 -59
-221 -59 -156 0 -235 3 -235 10 0 24 41 89 74 117 63 56 148 73 235 47z
m-1551 -463 c16 -9 16 -10 -1 -16 -12 -5 -14 -11 -8 -19 9 -11 14 -58 12 -134
-1 -37 -3 -41 -18 -33 -10 5 -26 12 -35 15 -10 3 -18 14 -18 25 0 11 -5 23
-11 27 -8 5 -8 9 1 14 7 4 9 13 6 19 -10 16 -26 14 -26 -4 0 -8 -5 -15 -11
-15 -6 0 -9 14 -8 33 2 18 0 38 -5 45 -4 8 -1 12 10 12 16 0 16 1 1 18 -10 10
-17 22 -17 26 0 9 107 -1 128 -13z"/>
<path d="M8220 2445 c-209 -47 -365 -210 -414 -432 -20 -88 -20 -118 -1 -208
23 -111 83 -222 159 -293 262 -245 651 -186 835 126 17 29 31 57 31 62 0 6
-62 10 -153 10 -140 0 -153 -2 -164 -19 -7 -11 -33 -32 -59 -47 -90 -53 -226
-31 -301 47 -35 37 -67 104 -58 119 4 6 157 10 391 10 l384 0 0 88 c-1 301
-211 527 -508 547 -49 3 -100 -1 -142 -10z m225 -264 c57 -25 125 -107 125
-152 0 -5 -96 -9 -235 -9 -258 0 -252 -2 -221 59 31 59 97 104 181 125 32 7
106 -4 150 -23z"/>
<path d="M6873 2416 c-60 -19 -107 -51 -139 -94 l-29 -37 -5 55 -5 55 -133 3
-132 3 2 -503 3 -503 142 -3 142 -3 3 323 c3 305 4 325 24 358 33 56 77 80
148 80 72 0 116 -22 143 -72 16 -29 19 -70 23 -358 l5 -325 140 0 140 0 0 380
c0 415 -1 428 -58 512 -33 50 -110 104 -177 124 -57 18 -190 20 -237 5z"/>
<path d="M7455 2388 c-3 -7 -4 -233 -3 -503 l3 -490 145 0 145 0 0 500 0 500
-143 3 c-108 2 -144 0 -147 -10z"/>
<path d="M8801 1549 c-79 -78 -3 -207 104 -178 77 21 103 123 46 180 -24 23
-38 29 -74 29 -37 0 -51 -6 -76 -31z m140 -8 c21 -22 29 -39 29 -66 0 -51 -44
-95 -95 -95 -51 0 -95 44 -95 95 0 28 7 44 31 66 42 40 90 40 130 0z"/>
</g>
</svg>
