<?xml version="1.0" standalone="no"?>
<!DOCTYPE svg PUBLIC "-//W3C//DTD SVG 20010904//EN"
 "http://www.w3.org/TR/2001/REC-SVG-20010904/DTD/svg10.dtd">
<svg version="1.0" xmlns="http://www.w3.org/2000/svg"
 width="355.000000pt" height="142.000000pt" viewBox="0 0 355.000000 142.000000"
 preserveAspectRatio="xMidYMid meet">
<metadata>
Created by potrace 1.16, written by Peter Selinger 2001-2019
</metadata>
<g transform="translate(0.000000,142.000000) scale(0.100000,-0.100000)"
fill="#000000" stroke="none">
<path d="M2054 1099 c-17 -5 -51 -27 -75 -49 -49 -45 -55 -47 -88 -24 -21 15
-24 15 -39 0 -16 -16 -15 -19 7 -37 39 -32 138 -17 154 24 3 8 22 22 42 31 74
35 150 -8 150 -86 0 -79 -79 -109 -189 -72 -76 26 -144 16 -211 -32 -84 -59
-117 -75 -145 -69 -38 9 -59 36 -69 88 -9 51 -38 89 -91 120 l-30 18 0 -28 c0
-32 -16 -53 -40 -53 -9 0 -39 -24 -68 -53 -48 -48 -52 -56 -43 -80 11 -29 30
-41 80 -51 19 -3 40 -11 48 -17 17 -14 18 -151 1 -182 -26 -51 -102 -138 -116
-132 -16 6 -52 -11 -52 -25 0 -6 24 -10 54 -10 52 0 59 3 131 61 42 33 78 59
80 57 2 -2 15 -32 30 -67 24 -58 25 -66 11 -77 -30 -21 -18 -34 34 -34 l50 0
0 88 0 87 93 48 c50 26 95 48 98 47 15 -1 119 -152 119 -172 -1 -31 -34 -70
-54 -62 -17 6 -46 -11 -46 -27 0 -5 22 -9 50 -9 45 0 53 4 89 43 37 38 41 47
41 95 0 59 13 67 48 29 14 -15 22 -36 22 -59 0 -43 22 -67 45 -48 11 9 15 34
15 100 0 78 -2 88 -19 93 -30 7 -49 56 -58 145 l-9 81 29 7 c16 3 47 22 68 41
85 77 68 197 -35 244 -45 20 -65 22 -112 8z"/>
</g>
</svg>
